<svg version="1" xmlns="http://www.w3.org/2000/svg" width="682.667" height="682.667" viewBox="0 0 512.000000 512.000000"><path d="M102.5 37c-4.2.9-6.8 2.7-9.5 6.7-2.2 3.2-2.5 4.8-2.7 15.1-.1 6.3-.4 11.7-.6 11.9-.3.2-2.4.6-4.7.9-7.3.9-22.1 6.1-29.5 10.5C35.1 94 21 111.9 14.8 133.7c-2.9 10.2-3.1 29.3-.4 39.8 2.2 8.7 9.2 23.4 14.3 30 16.2 20.9 40.2 33.5 66.7 34.9 1.5.1 2.9 2.6 6.1 10.3 8.2 19.8 19.1 36.3 34.1 51.6 8 8.1 26.6 23.1 30.3 24.5.9.3 2.9 1.5 4.6 2.6 3.9 2.7 16.1 8.6 25.3 12.1l7.4 2.9-2.9 1.9c-5.7 4-19.4 19-23.4 25.7-7.9 13.4-13.1 31.3-12.5 43.7.3 6.5 3.6 11.5 9.1 14 3.7 1.7 9.1 1.8 82.9 1.8 70.7 0 79.3-.1 82.5-1.6 8.7-3.9 10.9-10.7 8.5-26.4-1.6-11.3-6.8-24.2-13.9-35-4.1-6.1-14.2-16.9-19.8-21-4.2-3.1-4-3.7 1.8-5.5 2.2-.7 8.7-3.5 14.5-6.2 36.7-17.1 67.7-50 82.5-87.3 1.5-3.9 2.9-7.2 3.1-7.4.2-.2 2.3-.6 4.6-.8 21.8-2.2 40.7-10.7 55.4-25 19.4-18.9 27.7-43.1 24.1-70.2-.9-6.4-4.9-18.6-8-24.4-13.3-24.8-34.3-39.9-64.2-46.3l-4-.9-.1-11.5c-.1-13.1-1.1-16.2-7.1-20.7l-3.6-2.8-153.6-.1c-84.5 0-154.9.3-156.6.6zm287.9 95.2c-.1 35.9-.4 67.8-.8 70.8-2.4 21.3-9.6 40.4-21.5 57.7-30.9 44.8-86.1 66.2-141.4 54.7-45.1-9.4-83.7-43.5-98.2-86.8-1.3-3.9-2.6-8.2-2.8-9.6-.3-1.4-1.1-5.4-1.8-9-.9-4.8-1.3-24-1.4-74.8l-.1-68.2h268.1l-.1 65.2zM90 104.2c.4 24.1.4 102.8 0 102.8-2.2-.1-11.6-3.2-16.5-5.6-7.8-3.7-20.1-15.8-23.7-23.5-14.4-30 1-64.3 33.4-74.4 6-1.9 6.8-1.8 6.8.7zm348.4 3.8c40.4 20.2 39.9 75.1-.9 94-8.8 4.1-16.3 6-14.9 3.8.4-.7.9-24 1-51.8.1-27.8.2-50.6.3-50.6.5-.7 9.8 2.3 14.5 4.6zM273 359.1c19.2 5.2 35.2 20.2 40.4 37.5l.7 2.2h-57.6c-46.9.1-57.5-.1-57.5-1.2 0-.7 1.6-4.6 3.7-8.6 4.4-8.9 15.1-20.1 23.3-24.5 14-7.5 32.1-9.6 47-5.4zM142 447.3c-4 1.8-8.9 7.6-9.6 11.3-1.3 6.9 2.3 13.5 9 16.5 3.9 1.7 9.3 1.8 116.1 1.6 110.4-.2 112-.2 115.5-2.2 4.6-2.7 8.2-9.7 7.5-14.4-.8-5-3.9-9.4-8.3-11.9l-4-2.2-111.8.1c-81 0-112.6.3-114.4 1.2z"/></svg>